<svg width="124" height="112" viewBox="0 0 124 112" fill="none" xmlns="http://www.w3.org/2000/svg">
<path d="M0.805636 2.78693V0.136364H14.7318V2.78693H9.33689V17.5909H6.20052V2.78693H0.805636Z" fill="#1B1B1F"/>
<path d="M17.6977 22.5C17.2772 22.5 16.888 22.4659 16.5301 22.3977C16.1778 22.3352 15.8965 22.2614 15.6863 22.1761L16.4022 19.7727C16.8511 19.9034 17.2517 19.9659 17.6039 19.9602C17.9562 19.9545 18.2659 19.8438 18.5329 19.6278C18.8056 19.4176 19.0357 19.0653 19.2232 18.571L19.4875 17.8636L14.7403 4.5H18.013L21.0301 14.3864H21.1664L24.192 4.5H27.4732L22.2318 19.1761C21.9875 19.8693 21.6636 20.4631 21.2602 20.9574C20.8568 21.4574 20.3625 21.8381 19.7772 22.0994C19.1977 22.3665 18.5045 22.5 17.6977 22.5Z" fill="#1B1B1F"/>
<path d="M29.6082 22.5V4.5H32.6423V6.66477H32.8213C32.9804 6.34659 33.2048 6.00852 33.4946 5.65057C33.7843 5.28693 34.1764 4.97727 34.6707 4.72159C35.165 4.46023 35.7957 4.32955 36.5627 4.32955C37.5741 4.32955 38.486 4.58807 39.2985 5.10511C40.1167 5.61648 40.7644 6.375 41.2417 7.38068C41.7247 8.38068 41.9661 9.60795 41.9661 11.0625C41.9661 12.5 41.7304 13.7216 41.2588 14.7273C40.7872 15.733 40.1451 16.5 39.3326 17.0284C38.5201 17.5568 37.5997 17.821 36.5713 17.821C35.8213 17.821 35.1991 17.696 34.7048 17.446C34.2105 17.196 33.8127 16.8949 33.5116 16.5426C33.2161 16.1847 32.986 15.8466 32.8213 15.5284H32.6934V22.5H29.6082ZM32.6338 11.0455C32.6338 11.892 32.7531 12.6335 32.9917 13.2699C33.236 13.9063 33.5855 14.4034 34.04 14.7614C34.5002 15.1136 35.0571 15.2898 35.7105 15.2898C36.3923 15.2898 36.9633 15.108 37.4235 14.7443C37.8838 14.375 38.2304 13.8722 38.4633 13.2358C38.7019 12.5938 38.8213 11.8636 38.8213 11.0455C38.8213 10.233 38.7048 9.51136 38.4718 8.88068C38.2389 8.25 37.8923 7.75568 37.4321 7.39773C36.9718 7.03977 36.398 6.8608 35.7105 6.8608C35.0514 6.8608 34.4917 7.03409 34.0315 7.38068C33.5713 7.72727 33.2218 8.21307 32.9832 8.83807C32.7502 9.46307 32.6338 10.1989 32.6338 11.0455Z" fill="#1B1B1F"/>
<path d="M50.4036 17.8466C49.0911 17.8466 47.9576 17.5739 47.0031 17.0284C46.0542 16.4773 45.3241 15.6989 44.8127 14.6932C44.3014 13.6818 44.0457 12.4915 44.0457 11.1222C44.0457 9.77557 44.3014 8.59375 44.8127 7.5767C45.3298 6.55398 46.0514 5.75852 46.9775 5.19034C47.9036 4.61648 48.9917 4.32955 50.2417 4.32955C51.0485 4.32955 51.8099 4.46023 52.5258 4.72159C53.2474 4.97727 53.8838 5.375 54.4349 5.91477C54.9917 6.45455 55.4292 7.14205 55.7474 7.97727C56.0656 8.80682 56.2247 9.79545 56.2247 10.9432V11.8892H45.4946V9.80966H53.2673C53.2616 9.21875 53.1338 8.69318 52.8838 8.23295C52.6338 7.76705 52.2843 7.40057 51.8355 7.13352C51.3923 6.86648 50.8752 6.73295 50.2843 6.73295C49.6536 6.73295 49.0997 6.88636 48.6224 7.19318C48.1451 7.49432 47.773 7.89205 47.5059 8.38636C47.2446 8.875 47.111 9.41193 47.1054 9.99716V11.8125C47.1054 12.5739 47.2446 13.2273 47.523 13.7727C47.8014 14.3125 48.1906 14.7273 48.6906 15.017C49.1906 15.3011 49.7758 15.4432 50.4463 15.4432C50.8951 15.4432 51.3014 15.3807 51.665 15.2557C52.0286 15.125 52.344 14.9347 52.611 14.6847C52.8781 14.4347 53.0798 14.125 53.2161 13.7557L56.0968 14.0795C55.915 14.8409 55.5684 15.5057 55.0571 16.0739C54.5514 16.6364 53.9036 17.0739 53.1139 17.3864C52.3241 17.6932 51.4207 17.8466 50.4036 17.8466Z" fill="#1B1B1F"/>
<path d="M75.1345 7.96023L72.322 8.26705C72.2424 7.98296 72.1032 7.71591 71.9044 7.46591C71.7112 7.21591 71.4498 7.01421 71.1203 6.8608C70.7907 6.70739 70.3873 6.63068 69.91 6.63068C69.268 6.63068 68.7282 6.76989 68.2907 7.0483C67.8589 7.32671 67.6458 7.6875 67.6515 8.13068C67.6458 8.51136 67.785 8.82102 68.0691 9.05966C68.3589 9.2983 68.8362 9.49432 69.5009 9.64773L71.7339 10.125C72.9725 10.392 73.893 10.8153 74.4953 11.3949C75.1032 11.9744 75.41 12.733 75.4157 13.6705C75.41 14.4943 75.1686 15.2216 74.6913 15.8523C74.2197 16.4773 73.5635 16.9659 72.7225 17.3182C71.8816 17.6705 70.9157 17.8466 69.8248 17.8466C68.2225 17.8466 66.9328 17.5114 65.9555 16.8409C64.9782 16.1648 64.3958 15.2244 64.2083 14.0199L67.2169 13.7301C67.3532 14.321 67.643 14.767 68.0862 15.0682C68.5294 15.3693 69.1061 15.5199 69.8163 15.5199C70.5492 15.5199 71.1373 15.3693 71.5805 15.0682C72.0294 14.767 72.2538 14.3949 72.2538 13.9517C72.2538 13.5767 72.1089 13.267 71.8191 13.0227C71.535 12.7784 71.0919 12.5909 70.4896 12.4602L68.2566 11.9915C67.0009 11.7301 66.072 11.2898 65.4697 10.6705C64.8674 10.0455 64.5691 9.25568 64.5748 8.30114C64.5691 7.49432 64.7879 6.79546 65.2311 6.20455C65.6799 5.60796 66.3021 5.14773 67.0975 4.82386C67.8987 4.49432 68.822 4.32955 69.8674 4.32955C71.4015 4.32955 72.6089 4.65625 73.4896 5.30966C74.3759 5.96307 74.9242 6.84659 75.1345 7.96023Z" fill="#1B1B1F"/>
<path d="M83.67 17.8466C82.3632 17.8466 81.241 17.5597 80.3035 16.9858C79.3717 16.4119 78.6529 15.6193 78.1473 14.608C77.6473 13.5909 77.3973 12.4205 77.3973 11.0966C77.3973 9.76705 77.6529 8.59375 78.1643 7.5767C78.6757 6.55398 79.3973 5.75852 80.3291 5.19034C81.2666 4.61648 82.3745 4.32955 83.6529 4.32955C84.7154 4.32955 85.6558 4.52557 86.474 4.91761C87.2978 5.30398 87.9541 5.85227 88.4427 6.5625C88.9314 7.26705 89.2098 8.09091 89.2779 9.03409H86.3291C86.2098 8.40341 85.9257 7.87784 85.4768 7.45739C85.0336 7.03125 84.4399 6.81818 83.6955 6.81818C83.0649 6.81818 82.5109 6.98864 82.0336 7.32955C81.5564 7.66477 81.1842 8.14773 80.9171 8.77841C80.6558 9.40909 80.5251 10.1648 80.5251 11.0455C80.5251 11.9375 80.6558 12.7045 80.9171 13.3466C81.1785 13.983 81.545 14.4744 82.0166 14.821C82.4938 15.1619 83.0535 15.3324 83.6955 15.3324C84.1501 15.3324 84.5563 15.2472 84.9143 15.0767C85.2779 14.9006 85.5819 14.6477 85.8262 14.3182C86.0705 13.9886 86.2382 13.5881 86.3291 13.1165H89.2779C89.2041 14.0426 88.9313 14.8636 88.4598 15.5795C87.9882 16.2898 87.3461 16.8466 86.5336 17.25C85.7211 17.6477 84.7666 17.8466 83.67 17.8466Z" fill="#1B1B1F"/>
<path d="M95.5784 17.8551C94.7488 17.8551 94.0017 17.7074 93.3369 17.4119C92.6778 17.1108 92.1551 16.6676 91.7687 16.0824C91.388 15.4972 91.1977 14.7756 91.1977 13.9176C91.1977 13.179 91.334 12.5682 91.6068 12.0852C91.8795 11.6023 92.2517 11.2159 92.7233 10.9261C93.1948 10.6364 93.7261 10.4176 94.317 10.2699C94.9136 10.1165 95.5301 10.0057 96.1664 9.9375C96.9335 9.85795 97.5556 9.78693 98.0329 9.72443C98.5102 9.65625 98.8568 9.55398 99.0727 9.41761C99.2943 9.27557 99.4051 9.05682 99.4051 8.76136V8.71023C99.4051 8.06818 99.2147 7.57102 98.834 7.21875C98.4534 6.86648 97.9051 6.69034 97.1892 6.69034C96.4335 6.69034 95.834 6.85511 95.3909 7.18466C94.9534 7.5142 94.6579 7.90341 94.5045 8.35227L91.6238 7.94318C91.8511 7.14773 92.2261 6.48295 92.7488 5.94886C93.2715 5.40909 93.9108 5.00568 94.6664 4.73864C95.4221 4.46591 96.2573 4.32955 97.1721 4.32955C97.8028 4.32955 98.4306 4.40341 99.0556 4.55114C99.6806 4.69886 100.252 4.94318 100.769 5.28409C101.286 5.61932 101.701 6.0767 102.013 6.65625C102.331 7.2358 102.49 7.96023 102.49 8.82955V17.5909H99.5244V15.7926H99.4221C99.2346 16.1563 98.9704 16.4972 98.6295 16.8153C98.2943 17.1278 97.871 17.3807 97.3596 17.5739C96.8539 17.7614 96.2602 17.8551 95.5784 17.8551ZM96.3795 15.5881C96.9988 15.5881 97.5358 15.4659 97.9903 15.2216C98.4448 14.9716 98.7943 14.642 99.0386 14.233C99.2886 13.8239 99.4136 13.3778 99.4136 12.8949V11.3523C99.317 11.4318 99.1522 11.5057 98.9193 11.5739C98.692 11.642 98.4363 11.7017 98.1522 11.7528C97.8681 11.804 97.5869 11.8494 97.3085 11.8892C97.0301 11.929 96.7886 11.9631 96.584 11.9915C96.1238 12.054 95.7119 12.1562 95.3483 12.2983C94.9846 12.4403 94.6977 12.6392 94.4875 12.8949C94.2772 13.1449 94.1721 13.4688 94.1721 13.8665C94.1721 14.4347 94.3795 14.8636 94.7943 15.1534C95.209 15.4432 95.7375 15.5881 96.3795 15.5881Z" fill="#1B1B1F"/>
<path d="M108.678 0.136364V17.5909H105.593V0.136364H108.678Z" fill="#1B1B1F"/>
<path d="M117.646 17.8466C116.333 17.8466 115.2 17.5739 114.245 17.0284C113.296 16.4773 112.566 15.6989 112.055 14.6932C111.544 13.6818 111.288 12.4915 111.288 11.1222C111.288 9.77557 111.544 8.59375 112.055 7.5767C112.572 6.55398 113.294 5.75852 114.22 5.19034C115.146 4.61648 116.234 4.32955 117.484 4.32955C118.291 4.32955 119.052 4.46023 119.768 4.72159C120.49 4.97727 121.126 5.375 121.677 5.91477C122.234 6.45455 122.671 7.14205 122.99 7.97727C123.308 8.80682 123.467 9.79545 123.467 10.9432V11.8892H112.737V9.80966H120.509C120.504 9.21875 120.376 8.69318 120.126 8.23295C119.876 7.76705 119.527 7.40057 119.078 7.13352C118.634 6.86648 118.117 6.73295 117.527 6.73295C116.896 6.73295 116.342 6.88636 115.865 7.19318C115.387 7.49432 115.015 7.89205 114.748 8.38636C114.487 8.875 114.353 9.41193 114.348 9.99716V11.8125C114.348 12.5739 114.487 13.2273 114.765 13.7727C115.044 14.3125 115.433 14.7273 115.933 15.017C116.433 15.3011 117.018 15.4432 117.688 15.4432C118.137 15.4432 118.544 15.3807 118.907 15.2557C119.271 15.125 119.586 14.9347 119.853 14.6847C120.12 14.4347 120.322 14.125 120.458 13.7557L123.339 14.0795C123.157 14.8409 122.811 15.5057 122.299 16.0739C121.794 16.6364 121.146 17.0739 120.356 17.3864C119.566 17.6932 118.663 17.8466 117.646 17.8466Z" fill="#1B1B1F"/>
<path d="M0.533264 38.2543V36.0455H12.1384V38.2543H7.64264V50.5909H5.029V38.2543H0.533264Z" fill="#1B1B1F"/>
<path d="M14.61 54.6818C14.2596 54.6818 13.9353 54.6534 13.637 54.5966C13.3434 54.5445 13.109 54.483 12.9338 54.4119L13.5304 52.4091C13.9045 52.518 14.2383 52.5701 14.5318 52.5653C14.8254 52.5606 15.0835 52.4683 15.306 52.2884C15.5333 52.1132 15.725 51.8196 15.8813 51.4077L16.1014 50.8182L12.1455 39.6818H14.8728L17.387 47.9205H17.5006L20.0219 39.6818H22.7563L18.3884 51.9119C18.1848 52.4896 17.9149 52.9844 17.5787 53.3963C17.2425 53.813 16.8306 54.1302 16.3429 54.348C15.86 54.5705 15.2823 54.6818 14.61 54.6818Z" fill="#1B1B1F"/>
<path d="M24.5354 54.6818V39.6818H27.0638V41.4858H27.213C27.3455 41.2206 27.5326 40.9389 27.774 40.6406C28.0155 40.3376 28.3422 40.0795 28.7541 39.8665C29.1661 39.6487 29.6916 39.5398 30.3308 39.5398C31.1737 39.5398 31.9336 39.7552 32.6107 40.1861C33.2925 40.6122 33.8323 41.2443 34.23 42.0824C34.6325 42.9157 34.8337 43.9384 34.8337 45.1506C34.8337 46.3485 34.6372 47.3665 34.2442 48.2045C33.8512 49.0426 33.3162 49.6818 32.6391 50.1222C31.962 50.5625 31.195 50.7827 30.338 50.7827C29.713 50.7827 29.1945 50.6785 28.7826 50.4702C28.3706 50.2618 28.0392 50.0109 27.7882 49.7173C27.542 49.419 27.3503 49.1373 27.213 48.8722H27.1064V54.6818H24.5354ZM27.0567 45.1364C27.0567 45.8419 27.1561 46.4598 27.355 46.9901C27.5586 47.5204 27.8498 47.9347 28.2286 48.233C28.6121 48.5265 29.0761 48.6733 29.6206 48.6733C30.1888 48.6733 30.6647 48.5218 31.0482 48.2188C31.4317 47.911 31.7205 47.492 31.9147 46.9616C32.1135 46.4266 32.213 45.8182 32.213 45.1364C32.213 44.4593 32.1159 43.858 31.9218 43.3324C31.7276 42.8068 31.4388 42.3949 31.0553 42.0966C30.6718 41.7983 30.1935 41.6491 29.6206 41.6491C29.0714 41.6491 28.605 41.7936 28.2215 42.0824C27.838 42.3712 27.5468 42.776 27.3479 43.2969C27.1538 43.8177 27.0567 44.4309 27.0567 45.1364Z" fill="#1B1B1F"/>
<path d="M41.8649 50.804C40.7712 50.804 39.8266 50.5767 39.0311 50.1222C38.2404 49.6629 37.632 49.0142 37.2058 48.1761C36.7797 47.3333 36.5666 46.3414 36.5666 45.2003C36.5666 44.0781 36.7797 43.0933 37.2058 42.2457C37.6367 41.3935 38.238 40.7306 39.0098 40.2571C39.7816 39.7789 40.6883 39.5398 41.73 39.5398C42.4023 39.5398 43.0368 39.6487 43.6334 39.8665C44.2347 40.0795 44.765 40.411 45.2243 40.8608C45.6883 41.3106 46.0529 41.8835 46.3181 42.5795C46.5832 43.2708 46.7158 44.0947 46.7158 45.0511V45.8395H37.774V44.1065H44.2513C44.2466 43.6141 44.14 43.1761 43.9317 42.7926C43.7234 42.4044 43.4322 42.099 43.0581 41.8764C42.6888 41.6539 42.2579 41.5426 41.7655 41.5426C41.2399 41.5426 40.7783 41.6705 40.3806 41.9261C39.9828 42.1771 39.6727 42.5085 39.4502 42.9205C39.2324 43.3277 39.1211 43.7751 39.1164 44.2628V45.7756C39.1164 46.41 39.2324 46.9545 39.4644 47.4091C39.6964 47.8589 40.0207 48.2045 40.4374 48.446C40.8541 48.6828 41.3417 48.8011 41.9005 48.8011C42.2745 48.8011 42.613 48.7491 42.9161 48.6449C43.2191 48.536 43.4819 48.3774 43.7044 48.169C43.927 47.9607 44.0951 47.7027 44.2087 47.3949L46.6093 47.6648C46.4577 48.2992 46.1689 48.8532 45.7428 49.3267C45.3214 49.7955 44.7816 50.16 44.1235 50.4205C43.4653 50.6761 42.7125 50.804 41.8649 50.804Z" fill="#1B1B1F"/>
<path d="M62.474 42.5653L60.1302 42.821C60.0639 42.5843 59.9479 42.3617 59.7822 42.1534C59.6212 41.9451 59.4034 41.777 59.1288 41.6491C58.8542 41.5213 58.518 41.4574 58.1203 41.4574C57.5852 41.4574 57.1354 41.5734 56.7708 41.8054C56.411 42.0374 56.2334 42.3381 56.2382 42.7074C56.2334 43.0246 56.3494 43.2827 56.5862 43.4815C56.8277 43.6804 57.2254 43.8438 57.7794 43.9716L59.6402 44.3693C60.6723 44.5919 61.4394 44.9446 61.9413 45.4276C62.4479 45.9105 62.7036 46.5426 62.7083 47.3239C62.7036 48.0104 62.5024 48.6165 62.1046 49.142C61.7116 49.6629 61.1648 50.0701 60.464 50.3636C59.7633 50.6572 58.9583 50.804 58.0492 50.804C56.714 50.804 55.6392 50.5246 54.8248 49.9659C54.0104 49.4025 53.5251 48.6188 53.3688 47.6151L55.8759 47.3736C55.9896 47.866 56.2311 48.2377 56.6004 48.4886C56.9697 48.7396 57.4503 48.8651 58.0421 48.8651C58.6529 48.8651 59.143 48.7396 59.5123 48.4886C59.8864 48.2377 60.0734 47.9276 60.0734 47.5582C60.0734 47.2457 59.9527 46.9877 59.7112 46.7841C59.4744 46.5805 59.1051 46.4242 58.6032 46.3153L56.7424 45.9247C55.696 45.7069 54.9219 45.34 54.42 44.8239C53.9181 44.303 53.6695 43.6449 53.6742 42.8494C53.6695 42.1771 53.8518 41.5947 54.2211 41.1023C54.5952 40.6051 55.1136 40.2216 55.7765 39.9517C56.4441 39.6771 57.2135 39.5398 58.0848 39.5398C59.3632 39.5398 60.3693 39.812 61.1032 40.3565C61.8419 40.901 62.2988 41.6373 62.474 42.5653Z" fill="#1B1B1F"/>
<path d="M69.5869 50.804C68.4979 50.804 67.5627 50.5649 66.7815 50.0866C66.005 49.6084 65.406 48.9479 64.9846 48.1051C64.5679 47.2576 64.3596 46.2822 64.3596 45.179C64.3596 44.071 64.5727 43.0933 64.9988 42.2457C65.425 41.3935 66.0263 40.7306 66.8028 40.2571C67.584 39.7789 68.5073 39.5398 69.5727 39.5398C70.4581 39.5398 71.2417 39.7031 71.9235 40.0298C72.6101 40.3518 73.157 40.8087 73.5642 41.4006C73.9714 41.9877 74.2034 42.6742 74.2602 43.4602H71.8028C71.7034 42.9347 71.4666 42.4967 71.0926 42.1463C70.7233 41.7912 70.2285 41.6136 69.6082 41.6136C69.0826 41.6136 68.621 41.7557 68.2233 42.0398C67.8255 42.3191 67.5154 42.7216 67.2929 43.2472C67.0751 43.7727 66.9661 44.4025 66.9661 45.1364C66.9661 45.8797 67.0751 46.5189 67.2929 47.054C67.5107 47.5843 67.8161 47.9938 68.209 48.2827C68.6068 48.5668 69.0732 48.7088 69.6082 48.7088C69.987 48.7088 70.3255 48.6378 70.6238 48.4957C70.9268 48.349 71.1802 48.1383 71.3838 47.8636C71.5874 47.589 71.727 47.2552 71.8028 46.8622H74.2602C74.1986 47.634 73.9714 48.3182 73.5784 48.9148C73.1854 49.5066 72.6503 49.9706 71.9733 50.3068C71.2962 50.6383 70.5007 50.804 69.5869 50.804Z" fill="#1B1B1F"/>
<path d="M79.5105 50.8111C78.8193 50.8111 78.1966 50.688 77.6426 50.4418C77.0934 50.1908 76.6578 49.8215 76.3358 49.3338C76.0186 48.8461 75.86 48.2448 75.86 47.5298C75.86 46.9143 75.9736 46.4053 76.2009 46.0028C76.4281 45.6004 76.7383 45.2784 77.1313 45.0369C77.5243 44.7955 77.967 44.6132 78.4594 44.4901C78.9566 44.3622 79.4703 44.2699 80.0006 44.2131C80.6398 44.1468 81.1583 44.0876 81.556 44.0355C81.9537 43.9787 82.2425 43.8935 82.4225 43.7798C82.6071 43.6615 82.6995 43.4792 82.6995 43.233V43.1903C82.6995 42.6553 82.5408 42.241 82.2236 41.9474C81.9064 41.6539 81.4495 41.5071 80.8529 41.5071C80.2231 41.5071 79.7236 41.6444 79.3543 41.919C78.9897 42.1937 78.7435 42.518 78.6157 42.892L76.2151 42.5511C76.4045 41.8883 76.717 41.3343 77.1526 40.8892C77.5882 40.4394 78.1209 40.1032 78.7506 39.8807C79.3803 39.6534 80.0763 39.5398 80.8387 39.5398C81.3642 39.5398 81.8874 39.6013 82.4083 39.7244C82.9291 39.8475 83.405 40.0511 83.8358 40.3352C84.2667 40.6146 84.6123 40.9957 84.8728 41.4787C85.1379 41.9617 85.2705 42.5653 85.2705 43.2898V50.5909H82.7989V49.0923H82.7137C82.5574 49.3954 82.3372 49.6795 82.0532 49.9446C81.7738 50.205 81.4211 50.4157 80.9949 50.5767C80.5735 50.733 80.0787 50.8111 79.5105 50.8111ZM80.1782 48.9219C80.6943 48.9219 81.1417 48.8201 81.5205 48.6165C81.8993 48.4081 82.1905 48.1335 82.3941 47.7926C82.6024 47.4517 82.7066 47.08 82.7066 46.6776V45.392C82.6261 45.4583 82.4888 45.5199 82.2946 45.5767C82.1052 45.6335 81.8922 45.6832 81.6554 45.7259C81.4187 45.7685 81.1843 45.8063 80.9523 45.8395C80.7203 45.8726 80.5191 45.901 80.3486 45.9247C79.9651 45.9768 79.6218 46.062 79.3188 46.1804C79.0157 46.2988 78.7766 46.4645 78.6014 46.6776C78.4263 46.8859 78.3387 47.1558 78.3387 47.4872C78.3387 47.9607 78.5115 48.3182 78.8571 48.5597C79.2028 48.8011 79.6431 48.9219 80.1782 48.9219Z" fill="#1B1B1F"/>
<path d="M90.4267 36.0455V50.5909H87.8557V36.0455H90.4267Z" fill="#1B1B1F"/>
<path d="M97.9001 50.804C96.8063 50.804 95.8617 50.5767 95.0663 50.1222C94.2756 49.6629 93.6671 49.0142 93.241 48.1761C92.8149 47.3333 92.6018 46.3414 92.6018 45.2003C92.6018 44.0781 92.8149 43.0933 93.241 42.2457C93.6719 41.3935 94.2732 40.7306 95.045 40.2571C95.8168 39.7789 96.7235 39.5398 97.7652 39.5398C98.4375 39.5398 99.072 39.6487 99.6686 39.8665C100.27 40.0795 100.8 40.411 101.259 40.8608C101.723 41.3106 102.088 41.8835 102.353 42.5795C102.618 43.2708 102.751 44.0947 102.751 45.0511V45.8395H93.8092V44.1065H100.286C100.282 43.6141 100.175 43.1761 99.9669 42.7926C99.7585 42.4044 99.4673 42.099 99.0933 41.8764C98.724 41.6539 98.2931 41.5426 97.8007 41.5426C97.2751 41.5426 96.8134 41.6705 96.4157 41.9261C96.018 42.1771 95.7079 42.5085 95.4853 42.9205C95.2675 43.3277 95.1563 43.7751 95.1515 44.2628V45.7756C95.1515 46.41 95.2675 46.9545 95.4995 47.4091C95.7315 47.8589 96.0559 48.2045 96.4725 48.446C96.8892 48.6828 97.3769 48.8011 97.9356 48.8011C98.3097 48.8011 98.6482 48.7491 98.9512 48.6449C99.2543 48.536 99.5171 48.3774 99.7396 48.169C99.9621 47.9607 100.13 47.7027 100.244 47.3949L102.644 47.6648C102.493 48.2992 102.204 48.8532 101.778 49.3267C101.357 49.7955 100.817 50.16 100.159 50.4205C99.5005 50.6761 98.7476 50.804 97.9001 50.804Z" fill="#1B1B1F"/>
<path d="M0.647078 70.4879V68.5H11.0917V70.4879H7.04552V81.5909H4.69324V70.4879H0.647078Z" fill="#1B1B1F"/>
<path d="M13.3161 85.2727C13.0008 85.2727 12.7089 85.2472 12.4404 85.196C12.1762 85.1492 11.9653 85.0937 11.8076 85.0298L12.3445 83.2273C12.6812 83.3253 12.9816 83.3722 13.2458 83.3679C13.51 83.3636 13.7422 83.2805 13.9425 83.1186C14.1471 82.9609 14.3197 82.6967 14.4603 82.326L14.6584 81.7955L11.0981 71.7727H13.5526L15.8154 79.1875H15.9177L18.1869 71.7727H20.6478L16.7167 82.7798C16.5334 83.2997 16.2905 83.745 15.988 84.1158C15.6854 84.4908 15.3147 84.7763 14.8758 84.9723C14.4411 85.1726 13.9212 85.2727 13.3161 85.2727Z" fill="#1B1B1F"/>
<path d="M22.249 85.2727V71.7727H24.5246V73.3963H24.6588C24.7781 73.1577 24.9464 72.9041 25.1638 72.6357C25.3811 72.3629 25.6751 72.1307 26.0459 71.9389C26.4166 71.7429 26.8896 71.6449 27.4649 71.6449C28.2234 71.6449 28.9074 71.8388 29.5168 72.2266C30.1304 72.6101 30.6162 73.179 30.9741 73.9332C31.3364 74.6832 31.5175 75.6037 31.5175 76.6946C31.5175 77.7727 31.3406 78.6889 30.9869 79.4432C30.6332 80.1974 30.1517 80.7727 29.5423 81.169C28.9329 81.5653 28.2426 81.7635 27.4713 81.7635C26.9088 81.7635 26.4422 81.6697 26.0714 81.4822C25.7007 81.2947 25.4024 81.0689 25.1766 80.8047C24.955 80.5362 24.7824 80.2827 24.6588 80.044H24.5629V85.2727H22.249ZM24.5182 76.6818C24.5182 77.3168 24.6077 77.8729 24.7866 78.3501C24.9699 78.8274 25.2319 79.2003 25.5729 79.4688C25.918 79.733 26.3356 79.8651 26.8257 79.8651C27.3371 79.8651 27.7653 79.7287 28.1105 79.456C28.4557 79.179 28.7156 78.8018 28.8903 78.3246C29.0693 77.843 29.1588 77.2955 29.1588 76.6818C29.1588 76.0724 29.0714 75.5313 28.8967 75.0582C28.722 74.5852 28.4621 74.2145 28.1169 73.946C27.7717 73.6776 27.3413 73.5433 26.8257 73.5433C26.3314 73.5433 25.9116 73.6733 25.5665 73.9332C25.2213 74.1932 24.9592 74.5575 24.7802 75.0263C24.6055 75.495 24.5182 76.0469 24.5182 76.6818Z" fill="#1B1B1F"/>
<path d="M37.8456 81.7827C36.8612 81.7827 36.0111 81.5781 35.2952 81.169C34.5835 80.7557 34.0359 80.1719 33.6524 79.4176C33.2689 78.6591 33.0771 77.7663 33.0771 76.7393C33.0771 75.7294 33.2689 74.843 33.6524 74.0803C34.0402 73.3132 34.5814 72.7166 35.276 72.2905C35.9706 71.8601 36.7866 71.6449 37.7241 71.6449C38.3293 71.6449 38.9003 71.7429 39.4372 71.9389C39.9784 72.1307 40.4557 72.429 40.869 72.8338C41.2866 73.2386 41.6148 73.7543 41.8534 74.3807C42.092 75.0028 42.2114 75.7443 42.2114 76.6051V77.3146H34.1638V75.755H39.9933C39.9891 75.3118 39.8932 74.9176 39.7057 74.5724C39.5182 74.223 39.2561 73.9482 38.9194 73.7479C38.5871 73.5476 38.1993 73.4474 37.7561 73.4474C37.2831 73.4474 36.8676 73.5625 36.5097 73.7926C36.1517 74.0185 35.8726 74.3168 35.6723 74.6875C35.4763 75.054 35.3761 75.4567 35.3719 75.8956V77.2571C35.3719 77.8281 35.4763 78.3182 35.6851 78.7273C35.8939 79.1321 36.1858 79.4432 36.5608 79.6605C36.9358 79.8736 37.3747 79.9801 37.8775 79.9801C38.2142 79.9801 38.5189 79.9332 38.7916 79.8395C39.0643 79.7415 39.3008 79.5987 39.5011 79.4112C39.7014 79.2237 39.8527 78.9915 39.955 78.7145L42.1155 78.9574C41.9791 79.5284 41.7192 80.027 41.3356 80.4531C40.9564 80.875 40.4706 81.2031 39.8783 81.4375C39.2859 81.6676 38.6084 81.7827 37.8456 81.7827Z" fill="#1B1B1F"/>
<path d="M56.3937 74.3679L54.2843 74.598C54.2247 74.3849 54.1203 74.1847 53.9711 73.9972C53.8262 73.8097 53.6302 73.6584 53.3831 73.5433C53.1359 73.4283 52.8333 73.3707 52.4754 73.3707C51.9938 73.3707 51.589 73.4751 51.2609 73.6839C50.937 73.8928 50.7772 74.1633 50.7815 74.4957C50.7772 74.7813 50.8816 75.0135 51.0947 75.1925C51.312 75.3714 51.67 75.5185 52.1686 75.6335L53.8433 75.9915C54.7723 76.1918 55.4626 76.5092 55.9143 76.9439C56.3703 77.3786 56.6004 77.9474 56.6046 78.6506C56.6004 79.2685 56.4193 79.8139 56.0613 80.2869C55.7076 80.7557 55.2154 81.1222 54.5848 81.3864C53.9541 81.6506 53.2296 81.7827 52.4115 81.7827C51.2098 81.7827 50.2424 81.5312 49.5095 81.0284C48.7765 80.5213 48.3397 79.8161 48.1991 78.9126L50.4555 78.6953C50.5578 79.1385 50.7751 79.473 51.1075 79.6989C51.4399 79.9247 51.8724 80.0376 52.4051 80.0376C52.9548 80.0376 53.3958 79.9247 53.7282 79.6989C54.0649 79.473 54.2332 79.1939 54.2332 78.8615C54.2332 78.5803 54.1245 78.348 53.9072 78.1648C53.6941 77.9815 53.3617 77.8409 52.91 77.7429L51.2353 77.3913C50.2936 77.1953 49.5968 76.8651 49.1451 76.4006C48.6934 75.9318 48.4697 75.3395 48.474 74.6236C48.4697 74.0185 48.6338 73.4943 48.9661 73.0511C49.3028 72.6037 49.7694 72.2585 50.366 72.0156C50.9669 71.7685 51.6593 71.6449 52.4434 71.6449C53.594 71.6449 54.4995 71.8899 55.16 72.38C55.8248 72.87 56.236 73.5327 56.3937 74.3679Z" fill="#1B1B1F"/>
<path d="M62.7953 81.7827C61.8152 81.7827 60.9736 81.5675 60.2705 81.1371C59.5716 80.7067 59.0326 80.1122 58.6533 79.3537C58.2783 78.5909 58.0908 77.7131 58.0908 76.7202C58.0908 75.723 58.2826 74.843 58.6661 74.0803C59.0496 73.3132 59.5908 72.7166 60.2897 72.2905C60.9928 71.8601 61.8237 71.6449 62.7826 71.6449C63.5794 71.6449 64.2847 71.7919 64.8983 72.0859C65.5162 72.3757 66.0084 72.7869 66.3749 73.3196C66.7414 73.848 66.9502 74.4659 67.0013 75.1733H64.7897C64.7002 74.7003 64.4871 74.3061 64.1505 73.9908C63.8181 73.6712 63.3728 73.5114 62.8145 73.5114C62.3415 73.5114 61.926 73.6392 61.5681 73.8949C61.2101 74.1463 60.931 74.5085 60.7307 74.9815C60.5347 75.4545 60.4367 76.0213 60.4367 76.6818C60.4367 77.3509 60.5347 77.9261 60.7307 78.4077C60.9267 78.8849 61.2016 79.2536 61.5553 79.5135C61.9132 79.7692 62.333 79.897 62.8145 79.897C63.1554 79.897 63.4601 79.8331 63.7286 79.7053C64.0013 79.5732 64.2293 79.3835 64.4125 79.1364C64.5958 78.8892 64.7215 78.5888 64.7897 78.2351H67.0013C66.9459 78.9297 66.7414 79.5455 66.3877 80.0824C66.034 80.6151 65.5524 81.0327 64.9431 81.3352C64.3337 81.6335 63.6178 81.7827 62.7953 81.7827Z" fill="#1B1B1F"/>
<path d="M71.7266 81.7891C71.1045 81.7891 70.5441 81.6783 70.0455 81.4567C69.5512 81.2308 69.1591 80.8984 68.8694 80.4595C68.5839 80.0206 68.4411 79.4794 68.4411 78.8359C68.4411 78.282 68.5434 77.8239 68.7479 77.4617C68.9525 77.0994 69.2316 76.8097 69.5853 76.5923C69.939 76.375 70.3374 76.2109 70.7806 76.1001C71.228 75.9851 71.6904 75.902 72.1677 75.8508C72.743 75.7912 73.2096 75.7379 73.5675 75.6911C73.9255 75.6399 74.1854 75.5632 74.3474 75.4609C74.5135 75.3544 74.5966 75.1903 74.5966 74.9688V74.9304C74.5966 74.4489 74.4539 74.076 74.1684 73.8118C73.8829 73.5476 73.4717 73.4155 72.9347 73.4155C72.368 73.4155 71.9184 73.5391 71.586 73.7862C71.2579 74.0334 71.0363 74.3253 70.9212 74.6619L68.7607 74.3551C68.9312 73.7585 69.2124 73.2599 69.6045 72.8594C69.9965 72.4545 70.4759 72.152 71.0427 71.9517C71.6094 71.7472 72.2359 71.6449 72.9219 71.6449C73.395 71.6449 73.8658 71.7003 74.3346 71.8111C74.8033 71.9219 75.2316 72.1051 75.6194 72.3608C76.0072 72.6122 76.3182 72.9552 76.5526 73.3899C76.7913 73.8246 76.9106 74.3679 76.9106 75.0199V81.5909H74.6861V80.2422H74.6094C74.4688 80.5149 74.2707 80.7706 74.015 81.0092C73.7636 81.2436 73.4461 81.4332 73.0626 81.5781C72.6833 81.7188 72.238 81.7891 71.7266 81.7891ZM72.3275 80.0888C72.792 80.0888 73.1947 79.9972 73.5356 79.8139C73.8765 79.6264 74.1386 79.3793 74.3218 79.0724C74.5093 78.7656 74.603 78.4311 74.603 78.0689V76.9119C74.5306 76.9716 74.407 77.027 74.2323 77.0781C74.0619 77.1293 73.8701 77.174 73.657 77.2124C73.444 77.2507 73.233 77.2848 73.0242 77.3146C72.8154 77.3445 72.6343 77.37 72.4809 77.3913C72.1357 77.4382 71.8268 77.5149 71.554 77.6214C71.2813 77.728 71.0661 77.8771 70.9084 78.0689C70.7508 78.2564 70.6719 78.4993 70.6719 78.7976C70.6719 79.2237 70.8275 79.5455 71.1386 79.7628C71.4496 79.9801 71.8459 80.0888 72.3275 80.0888Z" fill="#1B1B1F"/>
<path d="M81.5512 68.5V81.5909H79.2373V68.5H81.5512Z" fill="#1B1B1F"/>
<path d="M88.2772 81.7827C87.2929 81.7827 86.4427 81.5781 85.7268 81.169C85.0152 80.7557 84.4676 80.1719 84.084 79.4176C83.7005 78.6591 83.5088 77.7663 83.5088 76.7393C83.5088 75.7294 83.7005 74.843 84.084 74.0803C84.4718 73.3132 85.013 72.7166 85.7076 72.2905C86.4022 71.8601 87.2183 71.6449 88.1558 71.6449C88.7609 71.6449 89.3319 71.7429 89.8688 71.9389C90.41 72.1307 90.8873 72.429 91.3007 72.8338C91.7183 73.2386 92.0464 73.7543 92.285 74.3807C92.5237 75.0028 92.643 75.7443 92.643 76.6051V77.3146H84.5954V75.755H90.425C90.4207 75.3118 90.3248 74.9176 90.1373 74.5724C89.9498 74.223 89.6877 73.9482 89.3511 73.7479C89.0187 73.5476 88.6309 73.4474 88.1877 73.4474C87.7147 73.4474 87.2992 73.5625 86.9413 73.7926C86.5833 74.0185 86.3042 74.3168 86.1039 74.6875C85.9079 75.054 85.8078 75.4567 85.8035 75.8956V77.2571C85.8035 77.8281 85.9079 78.3182 86.1167 78.7273C86.3255 79.1321 86.6174 79.4432 86.9924 79.6605C87.3674 79.8736 87.8064 79.9801 88.3092 79.9801C88.6458 79.9801 88.9505 79.9332 89.2233 79.8395C89.496 79.7415 89.7325 79.5987 89.9328 79.4112C90.1331 79.2237 90.2843 78.9915 90.3866 78.7145L92.5471 78.9574C92.4108 79.5284 92.1508 80.027 91.7673 80.4531C91.388 80.875 90.9022 81.2031 90.3099 81.4375C89.7176 81.6676 89.04 81.7827 88.2772 81.7827Z" fill="#1B1B1F"/>
<path d="M0.760892 98.7216V96.9545H10.045V98.7216H6.44839V108.591H4.35748V98.7216H0.760892Z" fill="#1B1B1F"/>
<path d="M12.0223 111.864C11.742 111.864 11.4825 111.841 11.2438 111.795C11.009 111.754 10.8215 111.705 10.6813 111.648L11.1586 110.045C11.4579 110.133 11.7249 110.174 11.9598 110.17C12.1946 110.167 12.401 110.093 12.5791 109.949C12.7609 109.809 12.9143 109.574 13.0393 109.244L13.2154 108.773L10.0507 99.8636H12.2325L14.2438 106.455H14.3348L16.3518 99.8636H18.5393L15.045 109.648C14.8821 110.11 14.6662 110.506 14.3973 110.835C14.1283 111.169 13.7988 111.422 13.4086 111.597C13.0223 111.775 12.5601 111.864 12.0223 111.864Z" fill="#1B1B1F"/>
<path d="M19.9626 111.864V99.8636H21.9853V101.307H22.1046C22.2107 101.095 22.3603 100.869 22.5535 100.631C22.7467 100.388 23.0081 100.182 23.3376 100.011C23.6671 99.8371 24.0876 99.75 24.599 99.75C25.2732 99.75 25.8812 99.9224 26.4228 100.267C26.9683 100.608 27.4001 101.114 27.7183 101.784C28.0402 102.451 28.2012 103.269 28.2012 104.239C28.2012 105.197 28.044 106.011 27.7296 106.682C27.4152 107.352 26.9872 107.864 26.4456 108.216C25.9039 108.568 25.2902 108.744 24.6046 108.744C24.1046 108.744 23.6899 108.661 23.3603 108.494C23.0308 108.328 22.7656 108.127 22.5649 107.892C22.3679 107.653 22.2145 107.428 22.1046 107.216H22.0194V111.864H19.9626ZM21.9796 104.227C21.9796 104.792 22.0592 105.286 22.2183 105.71C22.3812 106.134 22.6141 106.466 22.9171 106.705C23.224 106.939 23.5952 107.057 24.0308 107.057C24.4853 107.057 24.866 106.936 25.1728 106.693C25.4796 106.447 25.7107 106.112 25.866 105.688C26.0251 105.259 26.1046 104.773 26.1046 104.227C26.1046 103.686 26.027 103.205 25.8717 102.784C25.7164 102.364 25.4853 102.034 25.1785 101.795C24.8717 101.557 24.4891 101.438 24.0308 101.438C23.5914 101.438 23.2183 101.553 22.9115 101.784C22.6046 102.015 22.3717 102.339 22.2126 102.756C22.0573 103.172 21.9796 103.663 21.9796 104.227Z" fill="#1B1B1F"/>
<path d="M33.8262 108.761C32.9512 108.761 32.1956 108.58 31.5592 108.216C30.9266 107.848 30.4399 107.33 30.099 106.659C29.7581 105.985 29.5876 105.191 29.5876 104.278C29.5876 103.381 29.7581 102.593 30.099 101.915C30.4437 101.233 30.9247 100.703 31.5421 100.324C32.1596 99.9413 32.8849 99.75 33.7183 99.75C34.2562 99.75 34.7637 99.8371 35.241 100.011C35.7221 100.182 36.1463 100.447 36.5137 100.807C36.8849 101.167 37.1766 101.625 37.3887 102.182C37.6009 102.735 37.7069 103.394 37.7069 104.159V104.79H30.5535V103.403H35.7353C35.7315 103.009 35.6463 102.659 35.4796 102.352C35.313 102.042 35.08 101.797 34.7808 101.619C34.4853 101.441 34.1406 101.352 33.7467 101.352C33.3262 101.352 32.9569 101.455 32.6387 101.659C32.3206 101.86 32.0724 102.125 31.8944 102.455C31.7202 102.78 31.6312 103.138 31.6274 103.528V104.739C31.6274 105.246 31.7202 105.682 31.9058 106.045C32.0914 106.405 32.3509 106.682 32.6842 106.875C33.0175 107.064 33.4077 107.159 33.8546 107.159C34.1539 107.159 34.4247 107.117 34.6671 107.034C34.9096 106.947 35.1198 106.82 35.2978 106.653C35.4759 106.487 35.6103 106.28 35.7012 106.034L37.6217 106.25C37.5005 106.758 37.2694 107.201 36.9285 107.58C36.5914 107.955 36.1596 108.246 35.6331 108.455C35.1065 108.659 34.5043 108.761 33.8262 108.761Z" fill="#1B1B1F"/>
<path d="M50.3134 102.17L48.4384 102.375C48.3854 102.186 48.2926 102.008 48.16 101.841C48.0312 101.674 47.857 101.54 47.6373 101.438C47.4176 101.335 47.1487 101.284 46.8305 101.284C46.4025 101.284 46.0426 101.377 45.7509 101.563C45.4631 101.748 45.321 101.989 45.3248 102.284C45.321 102.538 45.4138 102.744 45.6032 102.903C45.7964 103.062 46.1146 103.193 46.5578 103.295L48.0464 103.614C48.8722 103.792 49.4858 104.074 49.8873 104.46C50.2926 104.847 50.4972 105.352 50.5009 105.977C50.4972 106.527 50.3362 107.011 50.018 107.432C49.7036 107.848 49.2661 108.174 48.7055 108.409C48.1449 108.644 47.5009 108.761 46.7737 108.761C45.7055 108.761 44.8456 108.538 44.1941 108.091C43.5426 107.64 43.1544 107.013 43.0294 106.21L45.035 106.017C45.1259 106.411 45.3191 106.708 45.6146 106.909C45.91 107.11 46.2945 107.21 46.768 107.21C47.2566 107.21 47.6487 107.11 47.9441 106.909C48.2434 106.708 48.393 106.46 48.393 106.165C48.393 105.915 48.2964 105.708 48.1032 105.545C47.9138 105.383 47.6184 105.258 47.2169 105.17L45.7282 104.858C44.8911 104.684 44.2718 104.39 43.8703 103.977C43.4688 103.561 43.2699 103.034 43.2737 102.398C43.2699 101.86 43.4157 101.394 43.7112 101C44.0104 100.602 44.4252 100.295 44.9555 100.08C45.4896 99.8599 46.1051 99.75 46.8021 99.75C47.8248 99.75 48.6297 99.9678 49.2169 100.403C49.8078 100.839 50.1733 101.428 50.3134 102.17Z" fill="#1B1B1F"/>
<path d="M56.0038 108.761C55.1326 108.761 54.3845 108.57 53.7595 108.188C53.1383 107.805 52.6591 107.277 52.322 106.602C51.9886 105.924 51.822 105.144 51.822 104.261C51.822 103.375 51.9924 102.593 52.3333 101.915C52.6742 101.233 53.1553 100.703 53.7765 100.324C54.4015 99.9413 55.1402 99.75 55.9924 99.75C56.7008 99.75 57.3277 99.8807 57.8731 100.142C58.4224 100.4 58.8599 100.765 59.1856 101.239C59.5114 101.708 59.697 102.258 59.7424 102.886H57.7765C57.697 102.466 57.5076 102.116 57.2083 101.835C56.9129 101.551 56.517 101.409 56.0208 101.409C55.6004 101.409 55.2311 101.523 54.9129 101.75C54.5947 101.973 54.3466 102.295 54.1686 102.716C53.9943 103.136 53.9072 103.64 53.9072 104.227C53.9072 104.822 53.9943 105.333 54.1686 105.761C54.3428 106.186 54.5871 106.513 54.9015 106.744C55.2197 106.972 55.5928 107.085 56.0208 107.085C56.3239 107.085 56.5947 107.028 56.8333 106.915C57.0758 106.797 57.2784 106.629 57.4413 106.409C57.6042 106.189 57.7159 105.922 57.7765 105.608H59.7424C59.6932 106.225 59.5114 106.773 59.197 107.25C58.8826 107.723 58.4545 108.095 57.9129 108.364C57.3712 108.629 56.7348 108.761 56.0038 108.761Z" fill="#1B1B1F"/>
<path d="M63.9427 108.767C63.3897 108.767 62.8916 108.669 62.4484 108.472C62.009 108.271 61.6605 107.975 61.4029 107.585C61.1492 107.195 61.0223 106.714 61.0223 106.142C61.0223 105.65 61.1132 105.242 61.295 104.92C61.4768 104.598 61.7249 104.341 62.0393 104.148C62.3537 103.955 62.7079 103.809 63.1018 103.71C63.4995 103.608 63.9105 103.534 64.3348 103.489C64.8461 103.436 65.2609 103.388 65.5791 103.347C65.8973 103.301 66.1283 103.233 66.2723 103.142C66.42 103.047 66.4938 102.902 66.4938 102.705V102.67C66.4938 102.242 66.367 101.911 66.1132 101.676C65.8594 101.441 65.4938 101.324 65.0166 101.324C64.5128 101.324 64.1132 101.434 63.8177 101.653C63.526 101.873 63.3291 102.133 63.2268 102.432L61.3063 102.159C61.4579 101.629 61.7079 101.186 62.0563 100.83C62.4048 100.47 62.831 100.201 63.3348 100.023C63.8385 99.8409 64.3954 99.75 65.0052 99.75C65.4257 99.75 65.8442 99.7992 66.2609 99.8977C66.6776 99.9962 67.0582 100.159 67.4029 100.386C67.7476 100.61 68.0241 100.915 68.2325 101.301C68.4446 101.687 68.5507 102.17 68.5507 102.75V108.591H66.5734V107.392H66.5052C66.3802 107.634 66.2041 107.862 65.9768 108.074C65.7533 108.282 65.4711 108.451 65.1302 108.58C64.7931 108.705 64.3973 108.767 63.9427 108.767ZM64.4768 107.256C64.8897 107.256 65.2476 107.174 65.5507 107.011C65.8537 106.845 66.0866 106.625 66.2495 106.352C66.4162 106.08 66.4995 105.782 66.4995 105.46V104.432C66.4351 104.485 66.3253 104.534 66.17 104.58C66.0185 104.625 65.848 104.665 65.6586 104.699C65.4692 104.733 65.2817 104.763 65.0961 104.79C64.9105 104.816 64.7495 104.839 64.6132 104.858C64.3063 104.9 64.0317 104.968 63.7893 105.063C63.5469 105.157 63.3556 105.29 63.2154 105.46C63.0753 105.627 63.0052 105.843 63.0052 106.108C63.0052 106.487 63.1435 106.773 63.42 106.966C63.6965 107.159 64.0488 107.256 64.4768 107.256Z" fill="#1B1B1F"/>
<path d="M72.6757 96.9545V108.591H70.6188V96.9545H72.6757Z" fill="#1B1B1F"/>
<path d="M78.6544 108.761C77.7794 108.761 77.0237 108.58 76.3873 108.216C75.7547 107.848 75.268 107.33 74.9271 106.659C74.5862 105.985 74.4157 105.191 74.4157 104.278C74.4157 103.381 74.5862 102.593 74.9271 101.915C75.2718 101.233 75.7528 100.703 76.3703 100.324C76.9877 99.9413 77.7131 99.75 78.5464 99.75C79.0843 99.75 79.5919 99.8371 80.0691 100.011C80.5502 100.182 80.9744 100.447 81.3419 100.807C81.7131 101.167 82.0047 101.625 82.2169 102.182C82.429 102.735 82.535 103.394 82.535 104.159V104.79H75.3816V103.403H80.5634C80.5597 103.009 80.4744 102.659 80.3078 102.352C80.1411 102.042 79.9081 101.797 79.6089 101.619C79.3134 101.441 78.9688 101.352 78.5748 101.352C78.1544 101.352 77.785 101.455 77.4669 101.659C77.1487 101.86 76.9006 102.125 76.7225 102.455C76.5483 102.78 76.4593 103.138 76.4555 103.528V104.739C76.4555 105.246 76.5483 105.682 76.7339 106.045C76.9195 106.405 77.179 106.682 77.5123 106.875C77.8456 107.064 78.2358 107.159 78.6828 107.159C78.982 107.159 79.2528 107.117 79.4953 107.034C79.7377 106.947 79.9479 106.82 80.1259 106.653C80.304 106.487 80.4384 106.28 80.5294 106.034L82.4498 106.25C82.3286 106.758 82.0975 107.201 81.7566 107.58C81.4195 107.955 80.9877 108.246 80.4612 108.455C79.9347 108.659 79.3324 108.761 78.6544 108.761Z" fill="#1B1B1F"/>
</svg>
