<svg width="107" height="70" viewBox="0 0 107 70" fill="none" xmlns="http://www.w3.org/2000/svg">
<path d="M11.2697 67.8991H0.553833L24.632 0.990051H36.2953L60.3734 67.8991H49.6575L30.7413 13.1435H30.2186L11.2697 67.8991ZM13.0666 41.6974H47.828V50.1918H13.0666V41.6974Z" fill="#1B1B1F"/>
<path d="M82.0153 69.0099C78.8354 69.0099 75.9604 68.4219 73.3903 67.2457C70.8203 66.0478 68.7838 64.3163 67.281 62.0511C65.7999 59.786 65.0594 57.009 65.0594 53.7202C65.0594 50.8887 65.6039 48.5582 66.6929 46.7287C67.7819 44.8991 69.2521 43.4508 71.1034 42.3835C72.9547 41.3163 75.0238 40.5104 77.3108 39.9659C79.5977 39.4214 81.9282 39.0076 84.3023 38.7244C87.3079 38.3759 89.7473 38.0928 91.6204 37.875C93.4935 37.6354 94.8548 37.2543 95.7042 36.7315C96.5537 36.2088 96.9784 35.3594 96.9784 34.1832V33.9545C96.9784 31.1013 96.1725 28.8906 94.5608 27.3224C92.9708 25.7543 90.5968 24.9702 87.4386 24.9702C84.1498 24.9702 81.5579 25.6998 79.6631 27.1591C77.7899 28.5966 76.494 30.1974 75.7753 31.9616L66.5949 29.8707C67.6839 26.8215 69.2738 24.3603 71.3648 22.4872C73.4774 20.5923 75.906 19.2202 78.6503 18.3707C81.3946 17.4995 84.2805 17.0639 87.3079 17.0639C89.3117 17.0639 91.4353 17.3035 93.6787 17.7827C95.9438 18.2401 98.0565 19.0895 100.017 20.331C101.999 21.5724 103.621 23.3475 104.885 25.6562C106.148 27.9432 106.78 30.9162 106.78 34.5753V67.8991H97.2398V61.0383H96.8477C96.2161 62.3016 95.2686 63.5431 94.0054 64.7628C92.7421 65.9825 91.1195 66.9953 89.1375 67.8011C87.1555 68.607 84.7814 69.0099 82.0153 69.0099ZM84.1389 61.169C86.8397 61.169 89.1484 60.6354 91.065 59.5682C93.0035 58.5009 94.4737 57.107 95.4756 55.3864C96.4992 53.6439 97.0111 51.7817 97.0111 49.7997V43.331C96.6626 43.6794 95.9874 44.0061 94.9855 44.3111C94.0054 44.5942 92.8837 44.8447 91.6204 45.0625C90.3572 45.2585 89.1266 45.4436 87.9287 45.6179C86.7308 45.7704 85.7289 45.901 84.923 46.0099C83.0281 46.2495 81.2966 46.6525 79.7284 47.2187C78.182 47.785 76.9405 48.6018 76.004 49.669C75.0892 50.7145 74.6318 52.1084 74.6318 53.8508C74.6318 56.2685 75.5248 58.098 77.3108 59.3395C79.0968 60.5592 81.3728 61.169 84.1389 61.169Z" fill="#1B1B1F"/>
</svg>
