<svg width="79" height="18" viewBox="0 0 79 18" fill="none" xmlns="http://www.w3.org/2000/svg">
<path d="M18.3334 9C18.3334 13.9706 14.3039 18 9.33337 18C4.36281 18 0.333374 13.9706 0.333374 9C0.333374 4.02944 4.36281 0 9.33337 0C14.3039 0 18.3334 4.02944 18.3334 9Z" fill="#1B1B1F"/>
<path d="M48.3334 9C48.3334 13.9706 44.3039 18 39.3334 18C34.3628 18 30.3334 13.9706 30.3334 9C30.3334 4.02944 34.3628 0 39.3334 0C44.3039 0 48.3334 4.02944 48.3334 9Z" fill="#1B1B1F"/>
<path d="M78.3334 9C78.3334 13.9706 74.3039 18 69.3334 18C64.3628 18 60.3334 13.9706 60.3334 9C60.3334 4.02944 64.3628 0 69.3334 0C74.3039 0 78.3334 4.02944 78.3334 9Z" fill="#1B1B1F"/>
</svg>
